{"title":"Biodagar aka Movie Days (Fridrik Thor Fridriksson, 1994)","uid":6880964,"size":1313994547,"categoryP":"video","categoryS":"movies","magnet":"?xt=urn:btih:6fb7ee3a2d22878290ee1d27f7b61daa321e0e68&amp;dn=Biodagar+aka+Movie+Days+%28Fridrik+Thor+Fridriksson%2C+1994%29&amp;tr=udp%3A%2F%2Ftracker.openbittorrent.com%3A80&amp;tr=udp%3A%2F%2Fopen.demonii.com%3A1337&amp;tr=udp%3A%2F%2Ftracker.coppersurfer.tk%3A6969&amp;tr=udp%3A%2F%2Fexodus.desync.com%3A6969","seeders":1,"leechers":0,"uploader":"rpessoa","files":2,"time":1323653714,"description":"Biodagar aka Movie Days (1994) - FriÃƒÂ°rik ÃƒÅ¾ÃƒÂ³r FriÃƒÂ°riksson\n &lt;a href=&quot;\nhttp://www.imdb.com/title/tt0109273/&quot; rel=&quot;nofollow&quot; target=&quot;_NEW&quot;&gt;\nhttp://www.imdb.com/title/tt0109273/&lt;/a&gt;\n\nDescription:\n\nMovie Days is a comedy set in the early sixties and based on Fridrik Thor Fridrikssons own childhood memories, a time when Icelandic society underwent a period of great turbulence and change. Movie Days er a comedy set in the early sixties and based on Fridrik Thor Fridrikssons own childhood memories, a time when Icelandic society underwent a period of great turbulence and change. At the same time, American movies and television gave the period a special atmosphere, filled with enchantment and romance that distracted many people from the drabness of their everyday existence. Thomas is submerged in and fascinated by the imaginary world of the cinema, but eventually has to come with terms with his own culture and reality. Movie Days is among with Children Of Nature (1991) and Angels of the Universe (2000) a great sample of the good co working between Fridrik Thor and the writer Einar MÃƒÂ¡r Gudmundsson. ENGLISH SUBTITLES\n\n\nFormat/Info : Audio Video Interleave \nFile size : 1.22 GiB \nDuration : 1h 22mn \nWriting application : VirtualDubMod 1.5.10.2 (build 2540/release) \nWriting library : VirtualDubMod build 2540/release \n\nVideo \nID : 0 \nFormat : MPEG-4 Visual \nFormat profile : Advanced Simple@L5 \nFormat settings, BVOP : Yes \nFormat settings, QPel : No \nFormat settings, GMC : No warppoints \nFormat settings, Matrix : Default (MPEG) \nCodec ID : XVID \nCodec ID/Hint : XviD \nDuration : 1h 22mn \nBit rate : 1 928 Kbps \nWidth : 720 pixels \nHeight : 464 pixels \nDisplay aspect ratio : 1.552 \nFrame rate : 25.000 fps \nColor space : YUV \nChroma subsampling : 4:2:0 \nBit depth : 8 bits \nScan type : Progressive \nBits/(Pixel*Frame) : 0.231 \nStream size : 1.11 GiB (91%) \nWriting library : XviD 1.2.1 (UTC 2008-12-04) \n\nAudio \nID : 1 \nFormat : AC-3 \nFormat/Info : Audio Coding 3 \nMode extension : CM (complete main) \nCodec ID : 2000 \nDuration : 1h 22mn \nBit rate mode : Constant \nBit rate : 192 Kbps \nChannel(s) : 2 channels \nChannel positions : Front: L R \nSampling rate : 48.0 KHz \nStream size : 113 MiB (9%) \nAlignment : Split accross interleaves \nInterleave, duration : 40 ms (1.00 video frame) \nInterleave, preload duration : 500 ms\n\n","torrent":{"xt":"urn:btih:6fb7ee3a2d22878290ee1d27f7b61daa321e0e68","amp;dn":"Biodagar+aka+Movie+Days+%28Fridrik+Thor+Fridriksson%2C+1994%29","amp;tr":["udp%3A%2F%2Ftracker.openbittorrent.com%3A80","udp%3A%2F%2Fopen.demonii.com%3A1337","udp%3A%2F%2Ftracker.coppersurfer.tk%3A6969","udp%3A%2F%2Fexodus.desync.com%3A6969"],"infoHash":"6fb7ee3a2d22878290ee1d27f7b61daa321e0e68","infoHashBuffer":{"type":"Buffer","data":[111,183,238,58,45,34,135,130,144,238,29,39,247,182,29,170,50,30,14,104]},"announce":[],"urlList":[]}}